<?xml version="1.0" encoding="utf-8"?>
<!-- Generator: Adobe Illustrator 21.0.0, SVG Export Plug-In . SVG Version: 6.00 Build 0)  -->
<svg version="1.1" id="Layer_1" xmlns="http://www.w3.org/2000/svg" xmlns:xlink="http://www.w3.org/1999/xlink" x="0px" y="0px"
	 viewBox="0 0 1920 1080" style="enable-background:new 0 0 1920 1080;" xml:space="preserve">
<style type="text/css">
	.st0{display:none;}
	.st1{fill:#31052F;}
	.st2{fill:#FFFFFF;}
	.st3{fill:#00A0FF;}
	.st4{fill:#8C0078;}
	.st5{fill:none;}
	.st6{fill:#220324;}
	.st7{fill:#5F084B;}
	.st8{fill:#5D074B;}
	.st9{fill:#0000FF;}
	.st10{fill:#370734;}
</style>
<g id="Layer_1_1_" class="st0">
	
		<image style="display:inline;overflow:visible;enable-background:new    ;" width="5763" height="1087" xlink:href="BD9582A3.png"  transform="matrix(1 0 0 1 -3841 -7)">
	</image>
</g>
<g id="Layer_2">
	<g id="Layer_3">
		<path class="st1" d="M0,0v1080h1920V0H0z M1061,339c3,2,5-1,7-2c0-1,0-2,0-3c0,1,0,2,0,3C1066,338,1064,341,1061,339z M1068,354
			c5-8,14-10,21-15C1082,344,1073,346,1068,354z M1110,202c-31-31-71-49-99-82C1039,153,1079,171,1110,202c8,8,15,16,20,27
			C1125,218,1118,210,1110,202z M1332,311h1H1332z"/>
		<path class="st2" d="M0,0v1080h1920V0H0z M1061,339c3,2,5-1,7-2c0-1,0-2,0-3c0,1,0,2,0,3C1066,338,1064,341,1061,339z M1068,354
			c5-8,14-10,21-15C1082,344,1073,346,1068,354z M1110,202c-31-31-71-49-99-82C1039,153,1079,171,1110,202c8,8,15,16,20,27
			C1125,218,1118,210,1110,202z"/>
		<path class="st1" d="M0,0v1080h1920V0H0z M1061,339c3,2,5-1,7-2c0-1,0-2,0-3c0,1,0,2,0,3C1066,338,1064,341,1061,339z M1068,354
			c5-8,14-10,21-15C1082,344,1073,346,1068,354z"/>
		<path class="st2" d="M0,0v1080h1920V0H0z M1068,354c5-8,14-10,21-15C1082,344,1073,346,1068,354z"/>
		<rect class="st3" width="1920" height="1080"/>
	</g>
	<path class="st4" d="M1920,866.1c-24.8-12.5-46.7-21.1-67-29.1c-75.6-29.5-135.9-40.8-162-46c-174.6-34.9-368.8-108.4-410-124
		c-102.7-38.9-144-62.4-186-40c-29.2,15.6-33.7,40-110,130c-22.2,26.2-39.3,44.8-50.5,56.9C860.1,894.6,799,954.8,749,1003
		c-14.7,14.1-34.4,33-58,55c-0.1,3.8-0.1,12.3,3,22h1226"/>
	<line class="st5" x1="713.8" y1="1080" x2="713.8" y2="1080"/>
	<path class="st1" d="M679,1038.1l35,33.9c0,0,281.3-309.4,421.4-463.7c-11.9-10.8-23.7-21.6-35.6-32.3h-0.8h0.8
		c-0.1-0.1-0.2-0.2-0.4-0.3"/>
	<path class="st6" d="M679,1038.1c0,14,0,27.9,0,41.9c11.7,0,23.3,0,35,0c0-2.7,0-5.3,0-8"/>
	<polyline class="st7" points="1920,827.5 1099.5,575.7 1111.1,635.1 1920,883.3 	"/>
	<polyline class="st8" points="484,1080 0,1080 0,1034 	"/>
	<path class="st7" d="M1517,1605"/>
	<path class="st7" d="M683,1144"/>
	<line class="st5" x1="0" y1="932.5" x2="0" y2="924.5"/>
	<path class="st4" d="M622,0C414.7,0,207.3,0,0,0c0,310.7,0,621.3,0,932l510.4,52C698.3,769,886.1,554,1074,339"/>
	<polyline class="st7" points="1063.1,343.2 613.9,0 703.8,0 1109.9,305.7 	"/>
	<path class="st5" d="M1068,354c5-8,14-10,21-15"/>
	<line class="st5" x1="1098.6" y1="300.2" x2="1097.9" y2="301"/>
	<path class="st9" d="M1109.4,305C1109.3,305,1109.3,305,1109.4,305"/>
	<polyline class="st10" points="1061.4,341.8 510,984 528.3,979.2 1109.8,305.8 	"/>
	<path class="st9" d="M1109.1,305L1109.1,305"/>
	<path class="st4" d="M1355,316c188.3,82,376.7,164,565,246V0H945.2c-2.4,0-4.8,0-7.2,0"/>
	<polyline class="st1" points="932.6,0 1333,311.3 1355,316 948.5,0 	"/>
	<polyline class="st1" points="1920,563.6 1920,561.9 1355,316 1333,311.3 	"/>
	<line class="st5" x1="1332" y1="311" x2="1333" y2="311"/>
</g>
</svg>
