<!DOCTYPE svg PUBLIC "-//W3C//DTD SVG 20010904//EN" "http://www.w3.org/TR/2001/REC-SVG-20010904/DTD/svg10.dtd">
<svg version="1.0" xmlns="http://www.w3.org/2000/svg" width="24px" height="24px" viewBox="0 0 10240 10240" preserveAspectRatio="xMidYMid meet">
<g id="layer1" fill="#eddf00" stroke="none">
 <path d="M8448 10233 c7 -3 16 -2 19 1 4 3 -2 6 -13 5 -11 0 -14 -3 -6 -6z"/>
 <path d="M10231 8454 c0 -11 3 -14 6 -6 3 7 2 16 -1 19 -3 4 -6 -2 -5 -13z"/>
 <path d="M10222 4957 c-9 -11 -10 -17 -2 -22 15 -9 23 -1 18 21 -3 15 -4 16 -16 1z"/>
 <path d="M1 1784 c0 -11 3 -14 6 -6 3 7 2 16 -1 19 -3 4 -6 -2 -5 -13z"/>
 <path d="M5280 15 c-10 -13 -9 -15 9 -15 11 0 21 4 21 9 0 18 -18 21 -30 6z"/>
 <path d="M1778 3 c7 -3 16 -2 19 1 4 3 -2 6 -13 5 -11 0 -14 -3 -6 -6z"/>
 </g>
<g id="layer2" fill="#fff000" stroke="none">
 <path d="M6005 4230 l-4230 -4230 1760 0 1760 0 2472 2473 2473 2472 0 1758 c0 966 -1 1757 -3 1757 -1 0 -1906 -1903 -4232 -4230z"/>
 </g>
<g id="layer3" fill="#ffffff" stroke="none">
 <path d="M0 6008 l0 -4233 4230 4230 c2327 2326 4230 4231 4230 4232 0 2 -1903 3 -4230 3 l-4230 0 0 -4232z"/>
 </g>
<g id="layer4" fill="#000000" stroke="none">
 <path d="M4223 6017 l-4223 -4222 0 -898 0 -897 897 0 898 0 4222 4223 4223 4222 0 898 0 897 -897 0 -898 0 -4222 -4223z"/>
 <path d="M7757 2482 c-1357 -1357 -2467 -2470 -2467 -2475 0 -4 1114 -7 2475 -7 l2475 0 0 2475 c0 1361 -3 2475 -8 2475 -4 0 -1117 -1110 -2475 -2468z"/>
 </g>

</svg>